<svg xmlns="http://www.w3.org/2000/svg" version="1.1" xmlns:xlink="http://www.w3.org/1999/xlink" xmlns:svgjs="http://svgjs.dev/svgjs" width="2000" height="545" viewBox="0 0 2000 545"><g transform="matrix(1,0,0,1,-1.2121212121210192,-0.8932884962251819)"><svg viewBox="0 0 396 108" data-background-color="#ffffff" preserveAspectRatio="xMidYMid meet" height="545" width="2000" xmlns="http://www.w3.org/2000/svg" xmlns:xlink="http://www.w3.org/1999/xlink"><g id="tight-bounds" transform="matrix(1,0,0,1,0.23999999999995225,0.177018637784073)"><svg viewBox="0 0 395.52 107.64596272443185" height="107.64596272443185" width="395.52"><g><svg viewBox="0 0 650.5026413973166 177.0428375" height="107.64596272443185" width="395.52"><g><rect width="11.55275383065" height="128.74678124999997" x="425.76281107499995" y="24.14802812500001" fill="#000000" opacity="1" stroke-width="0" stroke="transparent" fill-opacity="1" class="rect-qz-0" data-fill-palette-color="primary" rx="1%" id="qz-0" data-palette-color="#6b7280"></rect></g><g transform="matrix(1,0,0,1,0,24.46829375)"><svg viewBox="0 0 395.5199999999999 128.10625" height="128.10625" width="395.5199999999999"><g id="textblocktransform"><svg viewBox="0 0 395.5199999999999 128.10625" height="128.10625" width="395.5199999999999" id="textblock"><g><svg viewBox="0 0 395.5199999999999 128.10625" height="128.10625" width="395.5199999999999"><g transform="matrix(1,0,0,1,0,0)"><svg width="395.5199999999999" viewBox="2.8 -35.55 156.08999999999997 49.75" height="128.10625" data-palette-color="#6b7280"><g class="wordmark-text-0" data-fill-palette-color="primary" id="text-0"><path d="M19.75 1.15Q14.95 1.15 11.08-1.28 7.2-3.7 5-7.83 2.8-11.95 2.8-16.8L2.8-16.8Q2.8-21.8 5.1-26.13 7.4-30.45 11.35-33 15.3-35.55 20.05-35.55L20.05-35.55Q23-35.55 25.73-34.68 28.45-33.8 30.18-32.1 31.9-30.4 31.9-28L31.9-28Q31.9-26.05 30.53-24.68 29.15-23.3 27.25-23.3L27.25-23.3Q25.75-23.3 24.4-24.3L24.4-24.3 26.15-26.5Q26.8-26.1 27.3-26.1L27.3-26.1Q27.95-26.1 28.4-26.65 28.85-27.2 28.85-28.05L28.85-28.05Q28.85-29.5 27.48-30.55 26.1-31.6 24.05-32.15 22-32.7 20.1-32.7L20.1-32.7Q16.05-32.7 12.78-30.53 9.5-28.35 7.65-24.7 5.8-21.05 5.8-16.8L5.8-16.8Q5.8-12.7 7.58-9.22 9.35-5.75 12.53-3.73 15.7-1.7 19.8-1.7L19.8-1.7Q23.4-1.7 26.53-3.33 29.65-4.95 31.6-7.8L31.6-7.8 33.9-6.2Q31.45-2.6 27.7-0.73 23.95 1.15 19.75 1.15L19.75 1.15ZM48.75 0.5Q45.3 0.5 42.85-1.25 40.4-3 39.15-5.9 37.9-8.8 37.9-12.3L37.9-12.3Q37.9-16.15 39.4-19.13 40.9-22.1 43.7-23.75 46.5-25.4 50.25-25.4L50.25-25.4Q51.4-25.4 53.15-25.28 54.9-25.15 56.25-24.95L56.25-24.95 59.25-24.95 59.25-4.3Q59.25-3.3 59.72-2.78 60.2-2.25 60.9-2.25L60.9-2.25Q61.8-2.25 62.35-3.1L62.35-3.1 64.5-1.4Q63.75-0.35 62.82 0.08 61.9 0.5 60.7 0.5L60.7 0.5Q58.95 0.5 57.62-0.7 56.3-1.9 56.3-3.6L56.3-3.6Q55.1-1.6 53.15-0.55 51.2 0.5 48.75 0.5L48.75 0.5ZM48.8-2.2Q51.05-2.2 52.85-3.3 54.65-4.4 55.55-6.2L55.55-6.2Q56.25-7.65 56.25-9.4L56.25-9.4 56.25-22.5 52.95-22.6 50.05-22.7Q45.5-22.7 43.2-19.85 40.9-17 40.9-12.4L40.9-12.4Q40.9-8.15 42.92-5.18 44.95-2.2 48.8-2.2L48.8-2.2ZM79.3-25.5Q80.8-25.5 82.3-25.05L82.3-25.05 82.3-22.25Q80.85-22.6 79.4-22.6L79.4-22.6Q76.85-22.6 75.25-21.35L75.25-21.35Q73.65-20.1 72.4-17.8L72.4-17.8 72.4 0 69.4 0 69.4-17.5Q69.4-21.45 67.3-23.3L67.3-23.3 69.3-25.3Q70.2-24.75 71-23.65 71.8-22.55 72.15-21.2L72.15-21.2Q73.55-23.5 74.95-24.35L74.95-24.35Q76.7-25.5 79.3-25.5L79.3-25.5ZM88.49 0L88.49-34.2 91.49-34.2 91.49-2.8 108.84-2.8 108.84 0 88.49 0ZM124.24 0.5Q120.49 0.5 117.89-1.05 115.29-2.6 113.97-5.33 112.64-8.05 112.64-11.5L112.64-11.5Q112.64-14.9 113.92-18.1 115.19-21.3 117.77-23.35 120.34-25.4 124.04-25.4L124.04-25.4Q126.49-25.4 128.59-24.45 130.69-23.5 131.92-21.75 133.14-20 133.14-17.7L133.14-17.7Q133.14-14 129.99-11.98 126.84-9.95 121.29-10L121.29-10 115.79-10.05Q116.24-6.2 118.37-4.2 120.49-2.2 124.24-2.2L124.24-2.2Q126.49-2.2 128.42-2.83 130.34-3.45 132.14-4.75L132.14-4.75 133.64-2.75Q131.74-1.25 129.31-0.38 126.89 0.5 124.24 0.5L124.24 0.5ZM121.94-12.6Q130.14-12.6 130.14-17.75L130.14-17.75Q130.14-20.25 128.42-21.48 126.69-22.7 124.19-22.7L124.19-22.7Q121.39-22.7 119.47-21.1 117.54-19.5 116.59-17.15 115.64-14.8 115.64-12.6L115.64-12.6 121.94-12.6ZM155.89-25L158.89-25 158.84-6.9 158.84 5.7Q158.84 9.55 156.79 11.88 154.74 14.2 151.34 14.2L151.34 14.2Q149.24 14.2 147.51 13.18 145.79 12.15 144.81 10.35 143.84 8.55 143.84 6.3L143.84 6.3Q143.84 4.25 144.61 2.65 145.39 1.05 146.74 0.35L146.74 0.35Q143.39 0.1 141.39-1.88 139.39-3.85 139.39-6.95L139.39-6.95 139.39-17.8Q139.39-21.75 137.29-23.6L137.29-23.6 139.29-25.6Q140.44-24.85 141.39-23.3 142.34-21.75 142.39-19.95L142.39-19.95 142.39-8.25Q142.39-5.3 143.71-3.85 145.04-2.4 147.74-2.4L147.74-2.4Q149.94-2.4 151.66-3.35 153.39-4.3 155.14-6.45L155.14-6.45Q155.54-7 155.69-7.43 155.84-7.85 155.84-8.6L155.84-8.6 155.89-25ZM155.84 5.9L155.94-3.9Q155.29-2.85 154.74-2.27 154.19-1.7 153.44-1.1L153.44-1.1Q152.09-0.15 150.44 0.75L150.44 0.75Q148.44 1.8 147.59 3.05 146.74 4.3 146.74 6.2L146.74 6.2Q146.74 8.55 147.96 9.93 149.19 11.3 151.29 11.3L151.29 11.3Q153.34 11.3 154.56 9.85 155.79 8.4 155.84 5.9L155.84 5.9Z" fill="#000000" data-fill-palette-color="primary"></path></g></svg></g></svg></g></svg></g></svg></g><g transform="matrix(1,0,0,1,467.55837598064994,0)"><svg viewBox="0 0 182.94426541666664 177.0428375" height="177.0428375" width="182.94426541666664"><g><svg xmlns="http://www.w3.org/2000/svg" xmlns:xlink="http://www.w3.org/1999/xlink" version="1.1" x="0" y="0" viewBox="1 3 62 60" style="enable-background:new 0 0 64 64;" xml:space="preserve" height="177.0428375" width="182.94426541666664" class="icon-icon-0" data-fill-palette-color="accent" id="icon-0"><g fill="#000000" data-fill-palette-color="accent"><path d="M39.204 24.744C38.835 24.906 38.429 25 38 25h-0.791l0.455 1.922L32 32.586l-5.664-5.664L26.791 25H26c-0.429 0-0.835-0.094-1.204-0.256L16.209 61H5v2h54v-2H47.791L39.204 24.744zM33.414 53l8.43-8.43L45.735 61h-4.321L33.414 53zM38.586 61H25.414L32 54.414 38.586 61zM39.586 44L32 51.586 24.414 44H39.586zM25.414 42L32 35.414 38.586 42H25.414zM38.206 29.209l2.974 12.557L33.414 34 38.206 29.209zM30.586 34l-7.766 7.766 2.974-12.557L30.586 34zM22.156 44.57l8.43 8.43-8 8h-4.321L22.156 44.57z" fill="#000000" data-fill-palette-color="accent"></path><path d="M23 10c0-0.385 0.032-0.762 0.079-1.134L15 5.5v9l8-3.334V10z" fill="#000000" data-fill-palette-color="accent"></path><path d="M52 17c0.551 0 1-0.448 1-1V4c0-0.552-0.449-1-1-1s-1 0.448-1 1v12C51 16.552 51.449 17 52 17z" fill="#000000" data-fill-palette-color="accent"></path><path d="M12 17c0.551 0 1-0.448 1-1V4c0-0.552-0.449-1-1-1s-1 0.448-1 1v12C11 16.552 11.449 17 12 17z" fill="#000000" data-fill-palette-color="accent"></path><circle cx="32" cy="10" r="3.0" fill="#000000" data-fill-palette-color="accent"></circle><path d="M26 23h12c0.551 0 1-0.448 1-1v-6.356C37.349 17.688 34.826 19 32 19s-5.349-1.312-7-3.356V22C25 22.552 25.449 23 26 23z" fill="#000000" data-fill-palette-color="accent"></path><path d="M32 17c3.86 0 7-3.141 7-7s-3.14-7-7-7-7 3.141-7 7S28.14 17 32 17zM32 5c2.757 0 5 2.243 5 5s-2.243 5-5 5-5-2.243-5-5S29.243 5 32 5z" fill="#000000" data-fill-palette-color="accent"></path><path d="M41 11.167l8 3.334v-9l-8.079 3.366C40.968 9.238 41 9.615 41 10V11.167z" fill="#000000" data-fill-palette-color="accent"></path><rect x="61" y="61" width="2" height="2" fill="#000000" data-fill-palette-color="accent"></rect><rect x="1" y="61" width="2" height="2" fill="#000000" data-fill-palette-color="accent"></rect><rect x="49" y="31" width="2" height="2" fill="#000000" data-fill-palette-color="accent"></rect><rect x="53" y="31" width="2" height="2" fill="#000000" data-fill-palette-color="accent"></rect><rect x="45" y="31" width="2" height="2" fill="#000000" data-fill-palette-color="accent"></rect><rect x="13" y="31" width="2" height="2" fill="#000000" data-fill-palette-color="accent"></rect><rect x="17" y="31" width="2" height="2" fill="#000000" data-fill-palette-color="accent"></rect><rect x="9" y="31" width="2" height="2" fill="#000000" data-fill-palette-color="accent"></rect></g></svg></g></svg></g></svg></g><defs></defs></svg><rect width="395.52" height="107.64596272443185" fill="none" stroke="none" visibility="hidden"></rect></g></svg></g></svg>